<svg class="animated" id="freepik_stories-dreamer" xmlns="http://www.w3.org/2000/svg" viewBox="0 0 500 500" version="1.1" xmlns:xlink="http://www.w3.org/1999/xlink" xmlns:svgjs="http://svgjs.com/svgjs"><style>svg#freepik_stories-dreamer:not(.animated) .animable {opacity: 0;}svg#freepik_stories-dreamer.animated #freepik--Space--inject-2 {animation: 1.5s Infinite  linear floating;animation-delay: 0s;}svg#freepik_stories-dreamer.animated #freepik--character-2--inject-2 {animation: 1.5s Infinite  linear floating;animation-delay: 0s;}            @keyframes floating {                0% {                    opacity: 1;                    transform: translateY(0px);                }                50% {                    transform: translateY(-10px);                }                100% {                    opacity: 1;                    transform: translateY(0px);                }            }        </style><g id="freepik--Floor--inject-2" class="animable" style="transform-origin: 250px 345.38px;"><ellipse cx="250" cy="345.38" rx="236.59" ry="139.39" style="fill: rgb(245, 245, 245); transform-origin: 250px 345.38px;" id="elov230rlr8o" class="animable"></ellipse></g><g id="freepik--Shadows--inject-2" class="animable" style="transform-origin: 229.015px 368.2px;"><ellipse cx="111.68" cy="408.09" rx="47.32" ry="27.88" style="fill: rgb(224, 224, 224); transform-origin: 111.68px 408.09px;" id="el2nc8l7jx8y8" class="animable"></ellipse><ellipse cx="216.22" cy="364.33" rx="108.46" ry="63.9" style="fill: rgb(224, 224, 224); transform-origin: 216.22px 364.33px;" id="el1vlwk8iitb2" class="animable"></ellipse><ellipse cx="365.31" cy="404.08" rx="28.36" ry="16.71" style="fill: rgb(224, 224, 224); transform-origin: 365.31px 404.08px;" id="elhdmps3xi8uo" class="animable"></ellipse></g><g id="freepik--Plant--inject-2" class="animable" style="transform-origin: 365.31px 352.195px;"><path d="M366,365.48s-16.71-16.31-7.2-43.64c5.33-15.31,23-26.55,33-27.61,0,0-5.45,6.28-7.85,13.25l-12.66,8.41L383,312.25l-2.48,10s-10.83,6.55-12.43,8l11.67-3.05S378.83,355.34,366,365.48Z" style="fill: #62408C; transform-origin: 373.837px 329.855px;" id="el2xq00hzwn8a" class="animable"></path><g id="elifcif2n3hv"><path d="M366,365.48s-16.71-16.31-7.2-43.64c5.33-15.31,23-26.55,33-27.61,0,0-5.45,6.28-7.85,13.25l-12.66,8.41L383,312.25l-2.48,10s-10.83,6.55-12.43,8l11.67-3.05S378.83,355.34,366,365.48Z" style="opacity: 0.4; transform-origin: 373.837px 329.855px;" class="animable" id="elb04hsgefisq"></path></g><path d="M366,365.48s-8.65-34.13,4.14-54C370.15,311.44,355.15,329,366,365.48Z" style="fill: rgb(255, 255, 255); transform-origin: 366.1px 338.48px;" id="elirq3qofxoh" class="animable"></path><path d="M385.12,370.1l-20.43-.26h-.21L344,370.1s-.23,25.18,7.53,35.42h0c2.14,2.72,7.16,4.64,13,4.64s10.89-1.92,13-4.65C385.35,395.25,385.12,370.1,385.12,370.1Z" style="fill: rgb(55, 71, 79); transform-origin: 364.56px 390px;" id="elimyqgy2fsy" class="animable"></path><ellipse cx="364.58" cy="370.1" rx="20.54" ry="11.03" style="fill: rgb(69, 90, 100); transform-origin: 364.58px 370.1px;" id="elvq4kus6w0da" class="animable"></ellipse><path d="M364.58,367.17c7.07,0,13.05,2.27,15.16,5.41a4.38,4.38,0,0,0,.82-2.48c0-4.36-7.15-7.89-16-7.89s-16,3.53-16,7.89a4.45,4.45,0,0,0,.82,2.48C351.53,369.44,357.51,367.17,364.58,367.17Z" style="fill: rgb(38, 50, 56); transform-origin: 364.56px 367.395px;" id="elqx1c8mx47vt" class="animable"></path><ellipse cx="364.58" cy="372.58" rx="15.16" ry="5.41" style="fill: rgb(224, 224, 224); transform-origin: 364.58px 372.58px;" id="ellhynh77tiqp" class="animable"></ellipse><path d="M364.83,373.94s-7.91-.3-14.7-10.82c-2.8-4.33-4.15-6.61-4.15-6.61l11-.82-12.36-3.09-5.84-8.94,10.26-.76s-7.64-2.67-13.1-2.71c0,0-9.46-16.72-12.23-19.1a53.64,53.64,0,0,1,37.38,18.57C376.68,358.06,367.14,374.41,364.83,373.94Z" style="fill: #62408C; transform-origin: 346.772px 347.52px;" id="eli7jj5loa16" class="animable"></path><path d="M364.83,373.94s4.95-29.82-26.64-47.76C338.19,326.18,371,341.94,364.83,373.94Z" style="fill: rgb(255, 255, 255); transform-origin: 351.896px 350.06px;" id="elgzl11nj7fol" class="animable"></path><path d="M364.83,373.94s7.17.47,14.29-8.38c2.94-3.64,4.37-5.57,4.37-5.57l-9.88-1.78,11.44-1.63,6.11-7.51L382,347.42s7.14-1.69,12.07-1.21c0,0,10.11-14.19,12.84-16.08a48.68,48.68,0,0,0-35.48,13.24C355.64,358.5,362.71,374.15,364.83,373.94Z" style="fill: #62408C; transform-origin: 384.161px 352.015px;" id="el3pl9g8qufrs" class="animable"></path><g id="eljo1yys3c55"><path d="M364.83,373.94s7.17.47,14.29-8.38c2.94-3.64,4.37-5.57,4.37-5.57l-9.88-1.78,11.44-1.63,6.11-7.51L382,347.42s7.14-1.69,12.07-1.21c0,0,10.11-14.19,12.84-16.08a48.68,48.68,0,0,0-35.48,13.24C355.64,358.5,362.71,374.15,364.83,373.94Z" style="opacity: 0.2; transform-origin: 384.161px 352.015px;" class="animable" id="elja8kdcj8tzs"></path></g><path d="M364.83,373.94s-1.66-27.37,28.54-40.58C393.37,333.36,362.3,344.49,364.83,373.94Z" style="fill: rgb(255, 255, 255); transform-origin: 379.027px 353.65px;" id="el326pysmollc" class="animable"></path></g><g id="freepik--Space--inject-2" class="animable" style="transform-origin: 268.255px 152.001px;"><path d="M187.16,210.2a7.89,7.89,0,1,1-8.73-6.94A7.88,7.88,0,0,1,187.16,210.2Z" style="fill: rgb(38, 50, 56); transform-origin: 179.321px 211.099px;" id="elt4u9s7zcgaf" class="animable"></path><path d="M194.53,228.86a5.19,5.19,0,1,1-5.75-4.57A5.19,5.19,0,0,1,194.53,228.86Z" style="fill: rgb(38, 50, 56); transform-origin: 189.373px 229.446px;" id="elrxf8vmbik7f" class="animable"></path><path d="M424.53,221.81c-5.49,23.86-19.24,43.87-42.47,54.94a87.12,87.12,0,0,1-12.75,4.87c-46.51,13.8-57.76-23.16-67.86-43.19s-27.33-39.77-80.52-38.15-77-28.33-78-61.7c-2-70.71,77.7-109.09,160.26-95.16C390.52,58.15,439.91,155,424.53,221.81Z" style="fill: rgb(38, 50, 56); transform-origin: 285.104px 162.611px;" id="elhkvektynxr7" class="animable"></path><g id="el8j6xjcv2dv8"><circle cx="166.33" cy="124.51" r="40.49" style="fill: #62408C; transform-origin: 166.33px 124.51px; transform: rotate(-48.81deg);" class="animable" id="el0pqjdejv1wq"></circle></g><g id="el2l0x8rubm3f"><circle cx="166.33" cy="124.51" r="40.49" style="fill: rgb(255, 255, 255); opacity: 0.3; transform-origin: 166.33px 124.51px; transform: rotate(-48.81deg);" class="animable" id="el8r6jndxz2md"></circle></g><path d="M211,99.31c-2.7-4.94-9.74-6.93-19.11-6.19A38.49,38.49,0,0,1,195,96c5,.19,8.58,1.65,10.11,4.46,1.39,2.52.94,5.85-1,9.61-4.41,8.57-16.54,19.39-32.54,28.12-13.53,7.39-26.84,11.64-36.42,12.22-6.7.39-11.58-1-13.44-4.42-2-3.69-.15-9.09,4.6-15.07-.1-.58-.18-1.18-.24-1.77s-.13-1.27-.18-1.91c-7.78,8.78-11.1,17.23-8,22.91s11.61,7.38,22.83,5.78c10-1.43,22-5.56,34.09-12.16,13.95-7.61,25.1-17,31.45-25.59C211.66,110.87,213.63,104.1,211,99.31Z" style="fill: #62408C; transform-origin: 164.447px 124.736px;" id="el11fky656p32" class="animable"></path><path d="M136.47,116a1.85,1.85,0,1,1-3.68.42,1.85,1.85,0,0,1,3.68-.42Z" style="fill: #62408C; transform-origin: 134.63px 116.212px;" id="el5e9lekvxm0m" class="animable"></path><path d="M146.33,107.36a1.85,1.85,0,1,1-2.05-1.63A1.86,1.86,0,0,1,146.33,107.36Z" style="fill: #62408C; transform-origin: 144.492px 107.568px;" id="eleo7551f36t7" class="animable"></path><path d="M198.69,137.08a1.85,1.85,0,1,1-2.05-1.63A1.85,1.85,0,0,1,198.69,137.08Z" style="fill: #62408C; transform-origin: 196.852px 137.288px;" id="elwwpj1ub4kvg" class="animable"></path><path d="M142.92,120.15a2.48,2.48,0,1,1-2.75-2.18A2.48,2.48,0,0,1,142.92,120.15Z" style="fill: #62408C; transform-origin: 140.456px 120.433px;" id="elo9i5nux0qlq" class="animable"></path><path d="M194.56,144.18a2.48,2.48,0,1,1-2.74-2.19A2.48,2.48,0,0,1,194.56,144.18Z" style="fill: #62408C; transform-origin: 192.095px 144.455px;" id="els0dg2i0wvbg" class="animable"></path><path d="M320,59.2a34.77,34.77,0,0,1,12-39.83A34.77,34.77,0,1,0,354.82,82,34.78,34.78,0,0,1,320,59.2Z" style="fill: rgb(224, 224, 224); transform-origin: 327.076px 54.1082px;" id="el7v3x3m32q55" class="animable"></path><path d="M240.6,172.51l1.32,2.06a1.12,1.12,0,0,0,.92.51l2.44.08a1.12,1.12,0,0,1,.84,1.83l-1.55,1.9a1.13,1.13,0,0,0-.21,1l.69,2.35a1.13,1.13,0,0,1-1.49,1.37l-2.28-.89a1.13,1.13,0,0,0-1,.12l-2,1.38a1.13,1.13,0,0,1-1.76-1l.14-2.43a1.12,1.12,0,0,0-.44-1l-1.93-1.49a1.13,1.13,0,0,1,.4-2l2.36-.63a1.13,1.13,0,0,0,.78-.71l.82-2.3A1.13,1.13,0,0,1,240.6,172.51Z" style="fill: rgb(224, 224, 224); transform-origin: 240.106px 178.216px;" id="eluu9jqnckyb" class="animable"></path><path d="M344.56,241.74l1.32,2a1.13,1.13,0,0,0,.91.52l2.45.07a1.13,1.13,0,0,1,.83,1.84l-1.54,1.89a1.16,1.16,0,0,0-.21,1l.69,2.35a1.13,1.13,0,0,1-1.49,1.36l-2.28-.88a1.1,1.1,0,0,0-1,.12l-2,1.37a1.13,1.13,0,0,1-1.76-1l.14-2.44a1.13,1.13,0,0,0-.44-.95l-1.93-1.5a1.13,1.13,0,0,1,.4-2L341,245a1.12,1.12,0,0,0,.77-.71l.83-2.3A1.13,1.13,0,0,1,344.56,241.74Z" style="fill: rgb(224, 224, 224); transform-origin: 344.06px 247.426px;" id="elzgwihy5qnhf" class="animable"></path><path d="M208.09,169.11l.67,1a.57.57,0,0,0,.47.26l1.23,0a.57.57,0,0,1,.43.93l-.78,1a.57.57,0,0,0-.11.52l.35,1.18a.57.57,0,0,1-.76.69l-1.15-.44a.56.56,0,0,0-.53.06l-1,.69a.57.57,0,0,1-.89-.5l.07-1.23a.58.58,0,0,0-.22-.49l-1-.75a.57.57,0,0,1,.21-1l1.19-.32a.56.56,0,0,0,.39-.36l.42-1.16A.56.56,0,0,1,208.09,169.11Z" style="fill: rgb(224, 224, 224); transform-origin: 207.835px 171.963px;" id="el7c7i0klr2u" class="animable"></path><path d="M229.53,131.15l.67,1a.55.55,0,0,0,.46.26l1.24,0a.57.57,0,0,1,.42.93l-.78,1a.54.54,0,0,0-.1.52l.34,1.18a.57.57,0,0,1-.75.7l-1.15-.45a.56.56,0,0,0-.53.06l-1,.69a.57.57,0,0,1-.89-.5l.07-1.23a.55.55,0,0,0-.22-.48l-1-.76a.57.57,0,0,1,.2-1l1.2-.32a.56.56,0,0,0,.39-.36l.42-1.16A.57.57,0,0,1,229.53,131.15Z" style="fill: rgb(224, 224, 224); transform-origin: 229.269px 134.01px;" id="elvozxv17o92" class="animable"></path><path d="M280.8,66.44l.67,1a.56.56,0,0,0,.46.26l1.24,0a.57.57,0,0,1,.42.93l-.78,1a.55.55,0,0,0-.1.52l.34,1.19a.57.57,0,0,1-.75.69l-1.15-.45a.61.61,0,0,0-.53.06l-1,.7a.57.57,0,0,1-.89-.5l.07-1.24a.61.61,0,0,0-.22-.48l-1-.76a.57.57,0,0,1,.2-1l1.2-.31a.58.58,0,0,0,.39-.36l.41-1.16A.57.57,0,0,1,280.8,66.44Z" style="fill: rgb(224, 224, 224); transform-origin: 280.539px 69.3017px;" id="elq0mhrxclifn" class="animable"></path><path d="M331.94,98.72l.67,1a.59.59,0,0,0,.46.26l1.23,0a.57.57,0,0,1,.43.93l-.78,1a.58.58,0,0,0-.11.52l.35,1.19a.57.57,0,0,1-.76.69l-1.15-.45a.6.6,0,0,0-.52.06l-1,.7a.57.57,0,0,1-.89-.5l.07-1.24a.58.58,0,0,0-.22-.48l-1-.76a.57.57,0,0,1,.21-1l1.19-.31a.59.59,0,0,0,.39-.36l.42-1.17A.57.57,0,0,1,331.94,98.72Z" style="fill: rgb(224, 224, 224); transform-origin: 331.68px 101.585px;" id="elwjkiv71nvor" class="animable"></path><path d="M208.67,69.59l.67,1a.61.61,0,0,0,.47.27l1.23,0a.58.58,0,0,1,.43.93l-.79,1a.6.6,0,0,0-.1.52l.35,1.19a.57.57,0,0,1-.76.69L209,74.76a.59.59,0,0,0-.53.06l-1,.7a.57.57,0,0,1-.89-.5l.07-1.24a.55.55,0,0,0-.22-.48l-1-.76a.57.57,0,0,1,.21-1l1.19-.32a.55.55,0,0,0,.39-.35l.42-1.17A.57.57,0,0,1,208.67,69.59Z" style="fill: rgb(224, 224, 224); transform-origin: 208.4px 72.4652px;" id="elyu8jvxttfl" class="animable"></path><path d="M317.62,220.62l.67,1a.63.63,0,0,0,.47.26l1.23,0a.58.58,0,0,1,.43.93l-.79,1a.6.6,0,0,0-.1.52l.35,1.19a.57.57,0,0,1-.76.69l-1.15-.45a.59.59,0,0,0-.53.06l-1,.7a.57.57,0,0,1-.89-.5l.07-1.24a.55.55,0,0,0-.22-.48l-1-.76a.57.57,0,0,1,.2-1l1.2-.31a.59.59,0,0,0,.39-.36l.42-1.17A.57.57,0,0,1,317.62,220.62Z" style="fill: rgb(224, 224, 224); transform-origin: 317.359px 223.485px;" id="el12vx9ctcupto" class="animable"></path><path d="M397.5,197.6l.67,1a.55.55,0,0,0,.46.26l1.24,0a.57.57,0,0,1,.42.93l-.78,1a.54.54,0,0,0-.1.52l.34,1.18a.56.56,0,0,1-.75.69l-1.15-.44a.55.55,0,0,0-.53.06l-1,.69a.57.57,0,0,1-.89-.5l.07-1.23a.58.58,0,0,0-.22-.49l-1-.75a.57.57,0,0,1,.2-1l1.2-.32a.58.58,0,0,0,.39-.36l.42-1.16A.56.56,0,0,1,397.5,197.6Z" style="fill: rgb(224, 224, 224); transform-origin: 397.239px 200.453px;" id="el62ld3ftc9xw" class="animable"></path><path d="M404.18,153.41l.67,1a.54.54,0,0,0,.46.26l1.24,0a.57.57,0,0,1,.42.93l-.78,1a.57.57,0,0,0-.11.52l.35,1.18a.56.56,0,0,1-.75.69l-1.16-.44a.54.54,0,0,0-.52.06l-1,.69a.57.57,0,0,1-.89-.5l.06-1.23a.56.56,0,0,0-.22-.49l-1-.75a.57.57,0,0,1,.2-1l1.19-.32a.58.58,0,0,0,.4-.36l.41-1.16A.57.57,0,0,1,404.18,153.41Z" style="fill: rgb(224, 224, 224); transform-origin: 403.914px 156.26px;" id="el0y1s7cls3wc" class="animable"></path><path d="M369,203.1l.67,1a.57.57,0,0,0,.47.26l1.23,0a.57.57,0,0,1,.43.93l-.79,1a.6.6,0,0,0-.1.52l.35,1.18a.58.58,0,0,1-.76.7l-1.15-.45a.56.56,0,0,0-.53.06l-1,.7a.58.58,0,0,1-.89-.51l.07-1.23a.55.55,0,0,0-.22-.48l-1-.76a.57.57,0,0,1,.21-1l1.19-.32a.56.56,0,0,0,.39-.36l.42-1.16A.57.57,0,0,1,369,203.1Z" style="fill: rgb(224, 224, 224); transform-origin: 368.745px 205.96px;" id="el5xe1bo1gpy2" class="animable"></path><path d="M424.53,221.81a86,86,0,0,1-12.85,29.83A73.35,73.35,0,0,1,387.32,274q-2.55,1.49-5.26,2.77a34.77,34.77,0,0,1,42.47-54.94Z" style="fill: #62408C; transform-origin: 397.26px 246.216px;" id="elc3q47hm9r3t" class="animable"></path><path d="M424.53,221.81a86,86,0,0,1-12.85,29.83,8,8,0,0,1-2.87-4.81c-.84-4.71.63-10.37,1.06-15.12a11.54,11.54,0,0,0-.26-4.9A3.94,3.94,0,0,0,406,224a3.88,3.88,0,0,0-2.88,1.78,21.42,21.42,0,0,0-3.24,9.42c-.25,2.3-.93,5.56-4.18,5.09a3.37,3.37,0,0,1-2.35-1.8,8.2,8.2,0,0,1-.81-2.93c-.31-2.64,0-6.31-.39-9.67-.29-2.66-1-5.11-2.66-6.71a34.73,34.73,0,0,1,35,2.67Z" style="fill: #62408C; transform-origin: 407.01px 233.654px;" id="elvw5979j9pim" class="animable"></path><g id="el3kdmsg9y6d6"><path d="M424.53,221.81a86,86,0,0,1-12.85,29.83,8,8,0,0,1-2.87-4.81c-.84-4.71.63-10.37,1.06-15.12a11.54,11.54,0,0,0-.26-4.9A3.94,3.94,0,0,0,406,224a3.88,3.88,0,0,0-2.88,1.78,21.42,21.42,0,0,0-3.24,9.42c-.25,2.3-.93,5.56-4.18,5.09a3.37,3.37,0,0,1-2.35-1.8,8.2,8.2,0,0,1-.81-2.93c-.31-2.64,0-6.31-.39-9.67-.29-2.66-1-5.11-2.66-6.71a34.73,34.73,0,0,1,35,2.67Z" style="fill: rgb(255, 255, 255); opacity: 0.6; transform-origin: 407.01px 233.654px;" class="animable" id="elxc96m478569"></path></g><path d="M387.32,274q-2.55,1.49-5.26,2.77a34.53,34.53,0,0,1-7.65-9.32c.42-2.1,1-4.14,1.47-5.87a15.85,15.85,0,0,1,2-4.89,6.5,6.5,0,0,1,4.31-2.87,3.42,3.42,0,0,1,2.72.72A4.06,4.06,0,0,1,386,257c.61,4.71-2.12,9.39-1.51,14.12a3.72,3.72,0,0,0,.8,2.06A2.5,2.5,0,0,0,387.32,274Z" style="fill: #62408C; transform-origin: 380.865px 265.272px;" id="els3z3h9og2y" class="animable"></path><g id="elz6dg4f4alt"><path d="M387.32,274q-2.55,1.49-5.26,2.77a34.53,34.53,0,0,1-7.65-9.32c.42-2.1,1-4.14,1.47-5.87a15.85,15.85,0,0,1,2-4.89,6.5,6.5,0,0,1,4.31-2.87,3.42,3.42,0,0,1,2.72.72A4.06,4.06,0,0,1,386,257c.61,4.71-2.12,9.39-1.51,14.12a3.72,3.72,0,0,0,.8,2.06A2.5,2.5,0,0,0,387.32,274Z" style="fill: rgb(255, 255, 255); opacity: 0.6; transform-origin: 380.865px 265.272px;" class="animable" id="elmursk3dwvr"></path></g><path d="M399.34,256.41l-.78,3.76a3.47,3.47,0,0,1-4.09,2.68h0a3.47,3.47,0,0,1-2.68-4.09l.79-3.77a3.46,3.46,0,0,1,4.09-2.67h0A3.44,3.44,0,0,1,399.34,256.41Z" style="fill: #62408C; transform-origin: 395.568px 257.584px;" id="elw7lvefa5mnd" class="animable"></path><g id="eloezodvssisk"><path d="M399.34,256.41l-.78,3.76a3.47,3.47,0,0,1-4.09,2.68h0a3.47,3.47,0,0,1-2.68-4.09l.79-3.77a3.46,3.46,0,0,1,4.09-2.67h0A3.44,3.44,0,0,1,399.34,256.41Z" style="fill: rgb(255, 255, 255); opacity: 0.6; transform-origin: 395.568px 257.584px;" class="animable" id="elu4gwpxciq4a"></path></g></g><g id="freepik--character-2--inject-2" class="animable" style="transform-origin: 317.586px 117.824px;"><path d="M293.65,132.23l-.37.14a4.42,4.42,0,1,0-2.16,6.85l.38-.15a4.42,4.42,0,1,0,2.15-6.84Z" style="fill: rgb(55, 71, 79); transform-origin: 292.392px 135.723px;" id="eliw166n8nu29" class="animable"></path><path d="M258.66,135.07s-4.15-3.63-4,.27c0,0-2,0-1.28,2.1,0,0-2.6.33-.84,2.87a19.53,19.53,0,0,0,4.37,4.34l3.41-8.23Z" style="fill: rgb(148, 89, 89); transform-origin: 256.124px 139.092px;" id="elpy8db4y6xvo" class="animable"></path><path d="M291.92,137.56l-12.37,15.86-14.69-10.29s-.72-9.9-4.16-9.94-5.78,5-3.77,4.71a7,7,0,0,0,3.37-1.48l-4.4,7.42a20.56,20.56,0,0,0,4.31,2.91s13.35,17.4,20.4,17.43c2.09,0,14.13-14.06,14.13-14.06l.42-12.93Z" style="fill: rgb(148, 89, 89); transform-origin: 275.53px 148.685px;" id="elp3pw3nse28" class="animable"></path><path d="M342.18,139.63l3.81-1s1.69-9.93,4.36-14.32,6.54-10.7,6.38-13.62-1-6.42,3.23-7.32,5.4-3,6.53-3.7,6-3.15,10.17-.41a1.54,1.54,0,0,1,2,.8s.15.54-1.76,1.81-9.1,6-10.81,8.24a17.53,17.53,0,0,0-4.15,8.79c-1,4.8-3.85,19.19-4.57,22.78s-1.49,5.93-6.77,6.54S342.18,139.63,342.18,139.63Z" style="fill: rgb(148, 89, 89); transform-origin: 360.421px 123.121px;" id="elt6u7e8r77zd" class="animable"></path><path d="M355.51,151.94l7.49.89s5.6-8.37,9.83-11.29,10.34-7.09,11.39-9.82,1.71-6.27,5.94-5.36,6.16-.53,7.46-.71,6.79-.42,9.46,3.79a1.53,1.53,0,0,1,1.47,1.53s-.08.55-2.35.93S395.44,133.68,393,135a17.63,17.63,0,0,0-7.38,6.33c-2.85,4-11.36,15.95-13.48,18.92S369.88,164,355.74,165C350.44,165.41,355.51,151.94,355.51,151.94Z" style="fill: rgb(148, 89, 89); transform-origin: 380.937px 145.29px;" id="elum055qckynk" class="animable"></path><path d="M311.23,137.59l3.22.72s2.27,7.44,7.77,6.81,14-9.36,14-9.36,6.38,0,9.07,5.55c1.26,2.59,1.87,4.1,5.07,4.9s6.92,4.18,5.18,10.8c-.58,2.19-1.34,3.37-.12,6.87s-.84,7.62-.84,7.62-13.38,3.55-26.28-2.45c0,0-17.87,1.64-26.16-6.12,0,0-10.37,1-9.62-13.38.3-5.73,1.5-14,1.5-14Z" style="fill: #62408C; transform-origin: 324.233px 154.046px;" id="el5h5v8izkvn7" class="animable"></path><path d="M318,124.42a3.92,3.92,0,0,0-2.8-2.59,3.19,3.19,0,0,1-2.31-2.48,13.68,13.68,0,0,0-.52-1.91,11.42,11.42,0,0,0-1.22-2.59c-2.25-3.6-6.24-5.59-11.6-5.42a18.91,18.91,0,0,0-2.2.17,22.54,22.54,0,0,0-4.46,1c-6.6,2.25-9.14,7.13-9.16,11.36v0a11.7,11.7,0,0,0,.43,3.28,6.56,6.56,0,0,0,2.21,3.59l16.88,5c-.62,1.24,8.42,4,8.37,1.85a4.42,4.42,0,0,0,4.5-6.58A3.92,3.92,0,0,0,318,124.42Z" style="fill: rgb(55, 71, 79); transform-origin: 300.962px 122.947px;" id="elrw8yl0gaolb" class="animable"></path><path d="M312,134.26a3.83,3.83,0,1,1-4.25-3.38A3.83,3.83,0,0,1,312,134.26Z" style="fill: rgb(55, 71, 79); transform-origin: 308.194px 134.684px;" id="elsy0te0zxcjg" class="animable"></path><path d="M311.23,137.59A45.14,45.14,0,0,1,308.72,148c-2,5.16-7.42,3.77-11.6,1.33-2.12-1.24-2-5.07-1.31-8.54.13-.73.29-1.46.46-2.14.62-2.45,1.31-4.32,1.31-4.32l4,1,.94.23Z" style="fill: rgb(148, 89, 89); transform-origin: 303.296px 142.923px;" id="el88emi4udig3" class="animable"></path><path d="M307.11,111.55s.47-3.62,1.1-3.65,1,3.06,1,3.06,2.88-.63,2.68.25-3.48,2.17-3.48,2.17Z" style="fill: rgb(55, 71, 79); transform-origin: 309.505px 110.64px;" id="elzl25rpql6li" class="animable"></path><polygon points="305.84 142.02 298.21 149.72 295.5 128.69 303.98 127.59 305.84 142.02" style="fill: rgb(148, 89, 89); transform-origin: 300.67px 138.655px;" id="ele0zgoggnqsd" class="animable"></polygon><path d="M303.79,132.57a18.08,18.08,0,0,1-1.28,2.91,10.58,10.58,0,0,1-4.6,4.47,1.17,1.17,0,0,1-1.64-1.33v0a16,16,0,0,0,5.3-3.35A14,14,0,0,0,303.79,132.57Z" style="fill: rgb(112, 56, 56); transform-origin: 300.014px 136.317px;" id="elx5u2cr34uhb" class="animable"></path><path d="M299,155a.24.24,0,0,1-.23-.14,16.92,16.92,0,0,1-1-7.56c.42-4,.8-10.76.8-10.83a.24.24,0,1,1,.48,0c0,.06-.38,6.81-.79,10.85a17.05,17.05,0,0,0,.64,6.39c.49-2.27,1.91-4.36,3.54-6.73a47.14,47.14,0,0,0,4-6.64c1-2,1.19-3.63.68-4.73a2.64,2.64,0,0,0-1.77-1.4.24.24,0,0,1-.17-.3.24.24,0,0,1,.29-.17,3.2,3.2,0,0,1,2.09,1.67c.57,1.23.34,3-.68,5.14a46.84,46.84,0,0,1-4,6.7c-1.81,2.66-3.38,4.95-3.59,7.5a.25.25,0,0,1-.21.22Z" style="fill: rgb(38, 50, 56); transform-origin: 302.779px 144.367px;" id="el3c0bjwes2to" class="animable"></path><path d="M298.85,154.82s.68-1.65,1.76-.75-.57,3.12-1.74,3.9c-.89.58-2.68-3.07-1.85-3.93C298.06,153,298.85,154.82,298.85,154.82Z" style="fill: rgb(38, 50, 56); transform-origin: 298.883px 155.876px;" id="elsii69on39nk" class="animable"></path><path d="M295.31,112.86a10.76,10.76,0,0,0-9.52,11.61c.3,8.52,1.9,14.95,6.33,15s14.1-4.38,14-15.44S298.45,112.46,295.31,112.86Z" style="fill: rgb(148, 89, 89); transform-origin: 295.936px 126.121px;" id="elkjmv7hb4off" class="animable"></path><polygon points="292.03 127.29 292.67 132.25 289.65 131.73 292.03 127.29" style="fill: rgb(112, 56, 56); transform-origin: 291.16px 129.77px;" id="eljsa9bzr576" class="animable"></polygon><path d="M296.92,127.94a1.09,1.09,0,1,1-1.2-1A1.09,1.09,0,0,1,296.92,127.94Z" style="fill: rgb(38, 50, 56); transform-origin: 295.833px 128.024px;" id="el6c7j7xn6bjo" class="animable"></path><path d="M289.74,128a1.09,1.09,0,1,1-1.21-1A1.09,1.09,0,0,1,289.74,128Z" style="fill: rgb(38, 50, 56); transform-origin: 288.653px 128.083px;" id="elj6qmwn86ge" class="animable"></path><path d="M287.09,126l2-1.49s-.9-.75-1.65-.15A1.47,1.47,0,0,0,287.09,126Z" style="fill: rgb(38, 50, 56); transform-origin: 288.033px 125.064px;" id="eljg1miggdmt" class="animable"></path><path d="M291.56,134.44a4.34,4.34,0,0,0,2.63-1.08s.37,1.41-.79,1.84A1.57,1.57,0,0,1,291.56,134.44Z" style="fill: rgb(112, 56, 56); transform-origin: 292.903px 134.314px;" id="elror9xzury99" class="animable"></path><path d="M287.53,116.78s2.71,11.46,18.55,9.79c0,0,3.29-12.17-6.63-14.7S287.53,116.78,287.53,116.78Z" style="fill: rgb(55, 71, 79); transform-origin: 297.067px 119.041px;" id="el7ho4hbpjoea" class="animable"></path><path d="M303,127.59s0-3.36,2.28-3.68c2.52-.36,3.13,2,3.2,2.91a5.23,5.23,0,0,1-4.83,5.44Z" style="fill: rgb(148, 89, 89); transform-origin: 305.742px 128.066px;" id="elnedadsxgaeo" class="animable"></path><path d="M314.45,138.31s6.47,1.05,9.56,10.88,5.4,17.88,4.12,21.14-10.56,17.8-10.56,17.8-1.2,12.09-8.27,13.56c-.74.15-2.45.47.65-5.7a5.92,5.92,0,0,0,.81-3s-2.95,2.59-4.14,2.22.75-1.9,1.15-2.57,2.56-4.61,3.91-5.38l7.9-19.29-5.5-17.14a18.7,18.7,0,0,1,.37-12.48Z" style="fill: rgb(148, 89, 89); transform-origin: 317.364px 170.029px;" id="ell9vdarzr6mr" class="animable"></path><path d="M254.55,164.77h-.07a.43.43,0,0,1-.36-.5l3.08-18.81a115.62,115.62,0,0,0-.21-38.22,114.88,114.88,0,0,1-1.7-21.59l.38-25.24a.43.43,0,1,1,.86,0l-.38,25.24a115.72,115.72,0,0,0,1.69,21.43,116.29,116.29,0,0,1,.21,38.51L255,164.4A.43.43,0,0,1,254.55,164.77Z" style="fill: #62408C; transform-origin: 256.833px 112.375px;" id="elztjmxdwz4qj" class="animable"></path><polygon points="255.32 68.06 254.37 70.54 257.52 70.59 256.59 68.08 255.32 68.06" style="fill: #62408C; transform-origin: 255.945px 69.325px;" id="elbg8hmcus62c" class="animable"></polygon><path d="M269.4,46.89c-.11,7.23-6.19,21.92-13.43,21.82s-12.87-15-12.76-22.21a13.1,13.1,0,0,1,26.19.39Z" style="fill: #62408C; transform-origin: 256.304px 51.3054px;" id="elm9nfmujdu4s" class="animable"></path><path d="M254.51,43.2c-1,2.1-3.09,3.2-4.68,2.44s-2.08-3.06-1.09-5.16,3.09-3.19,4.68-2.44S255.5,41.11,254.51,43.2Z" style="fill: #62408C; transform-origin: 251.625px 41.842px;" id="elnc0ajp78zgr" class="animable"></path><path d="M249.53,49c-.25.52-1.16.61-2,.2s-1.38-1.17-1.13-1.7,1.15-.61,2-.2S249.78,48.46,249.53,49Z" style="fill: #62408C; transform-origin: 247.965px 48.2484px;" id="eli46y2pntyhj" class="animable"></path><g id="elj2srfuxgzjh"><path d="M254.51,43.2c-1,2.1-3.09,3.2-4.68,2.44s-2.08-3.06-1.09-5.16,3.09-3.19,4.68-2.44S255.5,41.11,254.51,43.2Z" style="fill: rgb(255, 255, 255); opacity: 0.4; transform-origin: 251.625px 41.842px;" class="animable" id="eljubrch7h3fg"></path></g><g id="elt4obfo3kpte"><path d="M249.53,49c-.25.52-1.16.61-2,.2s-1.38-1.17-1.13-1.7,1.15-.61,2-.2S249.78,48.46,249.53,49Z" style="fill: rgb(255, 255, 255); opacity: 0.4; transform-origin: 247.965px 48.2484px;" class="animable" id="elge9og78waz6"></path></g><path d="M261.64,162.44a.37.37,0,0,1-.36-.35l-.65-13.53a57.47,57.47,0,0,0-7.54-25.74,57.75,57.75,0,0,1-5.81-14.19l-4.5-17.17A.37.37,0,0,1,243,91a.36.36,0,0,1,.44.26l4.5,17.17a56.85,56.85,0,0,0,5.74,14,58.17,58.17,0,0,1,7.63,26.06l.66,13.53a.38.38,0,0,1-.35.39Z" style="fill: #62408C; transform-origin: 252.366px 126.714px;" id="el6wbbnvpnj7n" class="animable"></path><polygon points="244.43 98.96 244.18 101.6 247.23 100.81 245.66 98.63 244.43 98.96" style="fill: #62408C; transform-origin: 245.705px 100.115px;" id="elhhvwmh9z96s" class="animable"></polygon><path d="M252.33,74.79c1.83,7-.1,22.78-7.09,24.61s-16.41-11-18.25-18a13.1,13.1,0,0,1,25.34-6.64Z" style="fill: #62408C; transform-origin: 239.801px 82.3956px;" id="el42f539qrvr9" class="animable"></path><g id="el68xhui43pmg"><path d="M252.33,74.79c1.83,7-.1,22.78-7.09,24.61s-16.41-11-18.25-18a13.1,13.1,0,0,1,25.34-6.64Z" style="fill: rgb(255, 255, 255); opacity: 0.3; transform-origin: 239.801px 82.3956px;" class="animable" id="ela2f3b1u4jqk"></path></g><path d="M237,75.23c-.4,2.28-2.12,3.9-3.86,3.6s-2.82-2.4-2.43-4.69,2.12-3.9,3.86-3.6S237.39,72.94,237,75.23Z" style="fill: #62408C; transform-origin: 233.855px 74.6849px;" id="elhji458v17m8" class="animable"></path><path d="M233.75,82.13c-.1.57-.95.9-1.9.74s-1.64-.76-1.55-1.33.95-.9,1.9-.74S233.85,81.56,233.75,82.13Z" style="fill: #62408C; transform-origin: 232.026px 81.835px;" id="elvq4v8a1edg" class="animable"></path><g id="elvsagxwk385f"><path d="M237,75.23c-.4,2.28-2.12,3.9-3.86,3.6s-2.82-2.4-2.43-4.69,2.12-3.9,3.86-3.6S237.39,72.94,237,75.23Z" style="fill: rgb(255, 255, 255); opacity: 0.7; transform-origin: 233.855px 74.6849px;" class="animable" id="el8ttkdne7cgj"></path></g><g id="elzrgib9np1h"><path d="M233.75,82.13c-.1.57-.95.9-1.9.74s-1.64-.76-1.55-1.33.95-.9,1.9-.74S233.85,81.56,233.75,82.13Z" style="fill: rgb(255, 255, 255); opacity: 0.7; transform-origin: 232.026px 81.835px;" class="animable" id="el8xiqtxbzdm7"></path></g><path d="M260.7,133.19c-3.44,0-5.78,5-3.77,4.71a7,7,0,0,0,3-1.18l.4-.3,3.16-.23C262.83,134.52,261.94,133.2,260.7,133.19Z" style="fill: rgb(148, 89, 89); transform-origin: 259.839px 135.551px;" id="elh6smsgsxvjg" class="animable"></path></g><g id="freepik--character-1--inject-2" class="animable" style="transform-origin: 192.046px 315.373px;"><path d="M311.43,327.15c0,42.22-34.77,92.3-100.29,90-.64,0-1.29,0-1.93-.08q-2-.1-4.11-.27c-69.43-5.72-80.85-48.34-80.85-67.67s15.08-37.2,24.46-44.82,21.09-16.4,29.88-37.19c8-18.9,23.47-31.88,49.22-34.09l2.29-.17c1.86-.11,3.79-.17,5.75-.17C235.85,232.68,311.43,230.49,311.43,327.15Z" style="fill: #62408C; transform-origin: 217.84px 324.955px;" id="elb35pmbeaecl" class="animable"></path><g id="elms45wi3a76n"><path d="M311.43,327.15c0,42.22-34.77,92.3-100.29,90-.64,0-1.29,0-1.93-.08q-2-.1-4.11-.27c-69.43-5.72-80.85-48.34-80.85-67.67s15.08-37.2,24.46-44.82,21.09-16.4,29.88-37.19c8-18.9,23.47-31.88,49.22-34.09l2.29-.17c1.86-.11,3.79-.17,5.75-.17C235.85,232.68,311.43,230.49,311.43,327.15Z" style="fill: rgb(255, 255, 255); opacity: 0.6; transform-origin: 217.84px 324.955px;" class="animable" id="eljxuq7svr6v"></path></g><path d="M295.33,327.15c0,40.42-29.14,88.05-84.19,90-.64,0-1.29,0-1.93-.08,53.71-3,82.12-50,82.12-89.91,0-79.84-47.12-92.23-63.52-94.13-1.51-.18-2.76-.27-3.69-.31.7,0,1.41,0,2.14,0a37.28,37.28,0,0,1,3.84.17C244.63,234.09,295.33,244.33,295.33,327.15Z" style="fill: #62408C; transform-origin: 252.27px 324.935px;" id="elr72wsb7bhf8" class="animable"></path><g id="el0di7f29s59n"><path d="M295.33,327.15c0,40.42-29.14,88.05-84.19,90-.64,0-1.29,0-1.93-.08,53.71-3,82.12-50,82.12-89.91,0-79.84-47.12-92.23-63.52-94.13-1.51-.18-2.76-.27-3.69-.31.7,0,1.41,0,2.14,0a37.28,37.28,0,0,1,3.84.17C244.63,234.09,295.33,244.33,295.33,327.15Z" style="fill: rgb(255, 255, 255); opacity: 0.4; transform-origin: 252.27px 324.935px;" class="animable" id="elb3rgxxg64lj"></path></g><path d="M261.83,331c3.93-13.81,13.59-52.58-.69-64.64-5.74-4.84-13.2-9-20.06-12.22A22.69,22.69,0,0,0,212,263l-26.34,43.92s-11.54-3.69-20.63-1.51c0,0,11.84,2.81,14.57,11.62,0,0-38.49,3.16-45.6,19.84-2.9,6.79-6.26,13.86-9.22,19.85,2.08,15.15,10.91,36.82,38.3,49.76,2.46-9.22,9.42-32.91,16.15-33.41,8.36-.63,27.63,11.27,44.72,1.68,11.37-6.38,15.34-13.83,16.72-18.1a3.64,3.64,0,0,1,4.61-2.34c6,2,16.87,7,18.38,16.06,0,0,4.22-10.62-8.39-23.1a1.18,1.18,0,0,1,0-1.66C256.56,344.25,259.11,340.57,261.83,331Z" style="fill: #62408C; transform-origin: 196.732px 329.237px;" id="elq6do75aug9o" class="animable"></path><g id="elyojphxuh60i"><path d="M261.83,331c3.93-13.81,13.59-52.58-.69-64.64-5.74-4.84-13.2-9-20.06-12.22A22.69,22.69,0,0,0,212,263l-26.34,43.92s-11.54-3.69-20.63-1.51c0,0,11.84,2.81,14.57,11.62,0,0-38.49,3.16-45.6,19.84-2.9,6.79-6.26,13.86-9.22,19.85,2.08,15.15,10.91,36.82,38.3,49.76,2.46-9.22,9.42-32.91,16.15-33.41,8.36-.63,27.63,11.27,44.72,1.68,11.37-6.38,15.34-13.83,16.72-18.1a3.64,3.64,0,0,1,4.61-2.34c6,2,16.87,7,18.38,16.06,0,0,4.22-10.62-8.39-23.1a1.18,1.18,0,0,1,0-1.66C256.56,344.25,259.11,340.57,261.83,331Z" style="fill: rgb(255, 255, 255); opacity: 0.4; transform-origin: 196.732px 329.237px;" class="animable" id="el9n0w5u0vsag"></path></g><path d="M108.77,349.23l-9.72,26s3.22,10.77,13.16,6.32c0,0,2.31-6.47,4.79-9.7s8.62-10.83,8.62-10.83S125.72,350.23,108.77,349.23Z" style="fill: rgb(148, 89, 89); transform-origin: 112.335px 365.929px;" id="el159cd3jzze8" class="animable"></path><path d="M182.33,316.74l-34.89-7.23a24.41,24.41,0,0,0-27.25,14l-11.42,25.72s11.53,2.42,16.85,11.82c0,0,11.83-15,14.3-26,0,0,19.88,15.7,39,15.7,22.61,0,24.29-24,24.29-24l-2.69-6.86Z" style="fill: rgb(55, 71, 79); transform-origin: 155.99px 335.027px;" id="elgb90ibef8wd" class="animable"></path><path d="M172.1,323.25a24.39,24.39,0,0,0-27.25,14l-.43,1c6.94,4.59,20.9,12.52,34.48,12.52,15.06,0,24.29-13.28,23.51-21.21Z" style="fill: rgb(38, 50, 56); transform-origin: 173.438px 336.756px;" id="elrm195ie4dc" class="animable"></path><path d="M113.32,378.69c-.28.67-1.11,2.82-1.11,2.82a8.83,8.83,0,0,1-4.71.68c-1.08-7.3-5.56-7.69-7.93-7.36a2.31,2.31,0,0,0-1.87,1.61L96,381.94c-4.31,5.58-10.52,9.35-15.48,12.15h0s12.54-.17,12.54,11.68a14.56,14.56,0,0,0,6.35-4.3c1-1.06,4.94-5.86,8.53-6.38,4.41-.65,4.51-1,4.94-2.64s1.12-6.15,1.58-9.19C115,379.31,113.32,378.69,113.32,378.69Z" style="fill: rgb(69, 90, 100); transform-origin: 97.5435px 390.26px;" id="elyv8uon6qgp" class="animable"></path><path d="M80.51,394.09h0c-1.87,1.05-3.57,2-4.91,2.78-4.9,3-3.54,8.07,3.48,9.38,6.37,1.18,10.85.62,14-.48C93.05,393.92,80.51,394.09,80.51,394.09Z" style="fill: rgb(245, 245, 245); transform-origin: 82.8832px 400.499px;" id="eliznwveup5z" class="animable"></path><path d="M107.93,395.09c-3.59.52-7.48,5.32-8.53,6.38a14.56,14.56,0,0,1-6.35,4.3c-3.12,1.1-7.6,1.66-14,.48-3.57-.67-5.67-2.31-6.23-4.16-.78,2.53,1.33,5.21,6.14,6.11,6.27,1.16,10.69.6,13.76-.47A14.24,14.24,0,0,0,99,403.51c1-1,4.87-5.74,8.41-6.26,4.34-.63,4.44-1,4.86-2.58.09-.33.19-.77.29-1.26C112.15,394.27,111.3,394.59,107.93,395.09Z" style="fill: rgb(38, 50, 56); transform-origin: 92.6108px 401.127px;" id="eldxomca4ah1o" class="animable"></path><path d="M94,395.3a.5.5,0,0,1-.37-.17c-3-3.54-8-3.6-8.07-3.6a.49.49,0,0,1,0-1h0c.22,0,5.46.06,8.8,3.94a.49.49,0,0,1-.37.8Z" style="fill: rgb(245, 245, 245); transform-origin: 89.7653px 392.915px;" id="elg0rdl1bvjbv" class="animable"></path><path d="M97.71,392.63a.5.5,0,0,1-.37-.17c-3-3.55-8-3.6-8.07-3.6a.49.49,0,0,1,0-1h0c.23,0,5.47.06,8.81,3.94a.48.48,0,0,1-.06.68A.47.47,0,0,1,97.71,392.63Z" style="fill: rgb(245, 245, 245); transform-origin: 93.4819px 390.245px;" id="eli9wdl27fpuo" class="animable"></path><path d="M101.12,389.8a.5.5,0,0,1-.37-.17c-3-3.54-8-3.61-8.07-3.61a.48.48,0,0,1,0-1h0c.22,0,5.46.06,8.8,3.94a.49.49,0,0,1-.36.8Z" style="fill: rgb(245, 245, 245); transform-origin: 96.8854px 387.41px;" id="el5s4je5rolqs" class="animable"></path><path d="M104,386.76a.51.51,0,0,1-.37-.17c-3-3.54-8-3.6-8.07-3.6a.49.49,0,0,1-.48-.49.48.48,0,0,1,.49-.48,12.48,12.48,0,0,1,8.8,3.94.49.49,0,0,1-.37.8Z" style="fill: rgb(245, 245, 245); transform-origin: 99.7803px 384.39px;" id="el1ko2k8koy36" class="animable"></path><path d="M134.85,365.18l-9.72,26s3.22,10.78,13.16,6.32c0,0,2.31-6.46,4.79-9.7S151.7,377,151.7,377,151.8,366.18,134.85,365.18Z" style="fill: rgb(148, 89, 89); transform-origin: 138.415px 381.881px;" id="el5ofnmwpjjgf" class="animable"></path><path d="M208.41,332.68l-34.89-7.22a24.4,24.4,0,0,0-27.25,14l-11.42,25.73S146.38,367.6,151.7,377c0,0,11.83-15,14.3-26,0,0,19.88,15.71,39,15.71s24.29-24,24.29-24l-2.69-6.86Z" style="fill: rgb(55, 71, 79); transform-origin: 182.07px 350.977px;" id="elu2d343xnvys" class="animable"></path><path d="M139.4,394.64c-.29.67-1.11,2.81-1.11,2.81a8.83,8.83,0,0,1-4.71.68c-1.08-7.3-5.56-7.68-7.93-7.35a2.29,2.29,0,0,0-1.87,1.6l-1.72,5.51c-4.3,5.57-10.51,9.35-15.47,12.14h0s12.54-.17,12.54,11.68a14.56,14.56,0,0,0,6.35-4.29c1-1.06,4.94-5.86,8.53-6.39,4.41-.65,4.51-1,4.94-2.63.47-1.8,1.12-6.15,1.58-9.19C141.12,395.26,139.4,394.64,139.4,394.64Z" style="fill: rgb(69, 90, 100); transform-origin: 123.622px 406.205px;" id="elual064lvkq" class="animable"></path><path d="M106.59,410h0c-1.87,1.05-3.57,2-4.91,2.78-4.91,3-3.55,8.07,3.48,9.38,6.37,1.19,10.85.62,14-.48C119.13,409.86,106.59,410,106.59,410Z" style="fill: rgb(245, 245, 245); transform-origin: 108.96px 416.411px;" id="elnt2kjfqm9ii" class="animable"></path><path d="M134,411c-3.59.53-7.48,5.33-8.53,6.39a14.56,14.56,0,0,1-6.35,4.29c-3.12,1.1-7.6,1.67-14,.48-3.57-.66-5.67-2.31-6.23-4.15-.78,2.53,1.33,5.21,6.14,6.1,6.27,1.16,10.69.61,13.76-.47a14.26,14.26,0,0,0,6.25-4.21c1-1,4.87-5.74,8.41-6.26,4.34-.63,4.43-1,4.86-2.58.09-.34.19-.77.29-1.27C138.23,410.21,137.38,410.54,134,411Z" style="fill: rgb(38, 50, 56); transform-origin: 118.666px 417.039px;" id="eluvwv8sd62m" class="animable"></path><path d="M120.12,411.25a.5.5,0,0,1-.37-.17c-3-3.54-8-3.61-8.07-3.61a.48.48,0,0,1-.48-.48.49.49,0,0,1,.48-.49h0c.23,0,5.47.07,8.81,3.95a.49.49,0,0,1,0,.68A.51.51,0,0,1,120.12,411.25Z" style="fill: rgb(245, 245, 245); transform-origin: 115.914px 408.876px;" id="eln4pqrr5ae7i" class="animable"></path><path d="M123.79,408.58a.5.5,0,0,1-.37-.17c-3-3.55-8-3.61-8.07-3.61a.49.49,0,0,1,0-1h0c.22,0,5.46.07,8.8,3.95a.47.47,0,0,1-.05.68A.47.47,0,0,1,123.79,408.58Z" style="fill: rgb(245, 245, 245); transform-origin: 119.561px 406.19px;" id="elal27ndosojr" class="animable"></path><path d="M127.19,405.74a.44.44,0,0,1-.36-.17c-3-3.53-8-3.6-8.07-3.6a.49.49,0,1,1,0-1h0c.22,0,5.46.06,8.8,3.94a.48.48,0,0,1,0,.68A.47.47,0,0,1,127.19,405.74Z" style="fill: rgb(245, 245, 245); transform-origin: 122.981px 403.355px;" id="ely5c2dl8qvq" class="animable"></path><path d="M130,402.7a.49.49,0,0,1-.37-.16c-3-3.54-8-3.61-8.07-3.61a.48.48,0,0,1-.48-.48.49.49,0,0,1,.48-.49h0c.22,0,5.46.06,8.8,3.94a.48.48,0,0,1-.37.8Z" style="fill: rgb(245, 245, 245); transform-origin: 125.781px 400.33px;" id="elrb4gctzb2w" class="animable"></path><path d="M205.23,258s-4.65,1.85-12.73,14.33c-8.5,13.15-18.54,25.33-16.35,31l19.8-9.75,10.94-24.25S209.87,260.51,205.23,258Z" style="fill: rgb(148, 89, 89); transform-origin: 191.839px 280.665px;" id="eljya5a3pyxd" class="animable"></path><path d="M224.6,259.33l14.31,3.74s22.78,6.21,22.6,18.16c0,0-16-8.51-19.77,16.29,0,0-5.3,42.48-13.38,50.89,0,0-6-3.2-3-10.69a36.24,36.24,0,0,1-25.55-8.27c-9.63-8-9.92-11.41-9.92-11.41l8.67-17.39s-11.43-18.23,8.36-31.25c0,0,2.25-8.16-1.66-11.36C205.23,258,209.52,254.3,224.6,259.33Z" style="fill: #62408C; transform-origin: 225.701px 302.551px;" id="elea8zq5lf14s" class="animable"></path><path d="M257.17,215.2s2.72-5.69,3.77-5.38-.09,5.53-.09,5.53,5.07.52,4.27,1.85-6.88,1.68-6.88,1.68Z" style="fill: rgb(38, 50, 56); transform-origin: 261.188px 214.344px;" id="eljok8ei9tyk" class="animable"></path><path d="M268.06,242.17a6.78,6.78,0,0,0-3.2-5.76,5.49,5.49,0,0,1-2.44-5.32,24.7,24.7,0,0,0,.18-3.4,20.63,20.63,0,0,0-.6-4.91c-1.75-7.11-7.22-12.52-16.1-15.14a34.92,34.92,0,0,0-3.69-.91,39.33,39.33,0,0,0-7.85-.74c-12.05.12-18.84,6.76-21.16,13.69a.43.43,0,0,0,0,0,20,20,0,0,0-1.07,5.6c-.19,4.67,1.69,7.08,1.69,7.08l25,17.24a7.62,7.62,0,1,0,12.72,7.55,7.61,7.61,0,0,0,10.93-8.35A6.79,6.79,0,0,0,268.06,242.17Z" style="fill: rgb(38, 50, 56); transform-origin: 240.088px 234.281px;" id="el5niung007je" class="animable"></path><path d="M224,241.83c-.24,0-.47,0-.71,0A7.62,7.62,0,1,0,216,251.92c.23,0,.46,0,.7,0a7.62,7.62,0,1,0,7.22-10Z" style="fill: rgb(38, 50, 56); transform-origin: 220.01px 246.92px;" id="el9a5k7wgfk8c" class="animable"></path><polygon points="238.64 264.46 221.98 272.97 228.88 237.03 243.37 239.81 238.64 264.46" style="fill: rgb(148, 89, 89); transform-origin: 232.675px 255px;" id="elhstoizlyq9t" class="animable"></polygon><path d="M225.22,256.11a25.83,25.83,0,0,0,17.13-11l1-5.31L228.88,237Z" style="fill: rgb(112, 56, 56); transform-origin: 234.285px 246.555px;" id="elfhlzc8g89mj" class="animable"></path><path d="M237.13,211c-5.5-1.06-17.77-.24-21.88,13.88s-4.95,25.53,2.26,28,25.48.43,31.36-17.74S242.49,212,237.13,211Z" style="fill: rgb(148, 89, 89); transform-origin: 231.274px 232.205px;" id="elkmbiyzvct1" class="animable"></path><polygon points="223.96 232.85 222.33 241.33 217.66 238.86 223.96 232.85" style="fill: rgb(112, 56, 56); transform-origin: 220.81px 237.09px;" id="elpr1dxr57j5p" class="animable"></polygon><path d="M229.52,236.52a2.58,2.58,0,0,1-2.05-2,2.28,2.28,0,0,0,4.3,1.37A2.56,2.56,0,0,1,229.52,236.52Z" style="fill: rgb(38, 50, 56); transform-origin: 229.605px 235.847px;" id="elpjn1krb4nxc" class="animable"></path><path d="M218,233.06a2.58,2.58,0,0,1-2-2,2.28,2.28,0,0,0,4.3,1.37A2.57,2.57,0,0,1,218,233.06Z" style="fill: rgb(38, 50, 56); transform-origin: 218.135px 232.387px;" id="elkxfktxnrtz" class="animable"></path><path d="M216.65,228l3.77-1.35s-1-1.6-2.49-1S216.65,228,216.65,228Z" style="fill: rgb(38, 50, 56); transform-origin: 218.53px 226.758px;" id="el17a0w6tionr" class="animable"></path><path d="M219.33,244.32a7.49,7.49,0,0,0,4.89-.35s-.15,2.51-2.29,2.59S219.33,244.32,219.33,244.32Z" style="fill: rgb(112, 56, 56); transform-origin: 221.775px 245.266px;" id="elnxyapq3255" class="animable"></path><path d="M222.25,213.2s-1.74,20.26,25.13,26.06c0,0,11.95-18.16-2.94-27.67S222.25,213.2,222.25,213.2Z" style="fill: rgb(38, 50, 56); transform-origin: 237.072px 223.502px;" id="eli7enaw8vi1h" class="animable"></path><path d="M241.69,239.25s1.78-5.52,5.72-4.81c4.33.78,4,5,3.67,6.5-1,3.84-5,7.37-10.83,6.31Z" style="fill: rgb(148, 89, 89); transform-origin: 245.753px 240.909px;" id="el4vlzwie0s5q" class="animable"></path><path d="M224.6,259.33S217,268,218.07,273.24s12.72,8.47,20.57-8.78Z" style="fill: rgb(148, 89, 89); transform-origin: 228.303px 268.373px;" id="eltyvj46rtag8" class="animable"></path><path d="M196.91,270.23l.06-.32a5.43,5.43,0,0,1,4.62-4.48h0l29.66,9.94-6.47,45.69-30-11Z" style="fill: rgb(38, 50, 56); transform-origin: 213.015px 293.245px;" id="eljqiz3eenwjp" class="animable"></path><polygon points="229.45 277.11 226.73 279.63 219.67 322.19 222.52 321.11 229.45 277.11" style="fill: rgb(224, 224, 224); transform-origin: 224.56px 299.65px;" id="elpeccwnyhnm9" class="animable"></polygon><path d="M199.48,268.89h0a3,3,0,0,1,3.28-.91l26.69,9.13-2.72,2.52-26.57-8.39A1.47,1.47,0,0,1,199.48,268.89Z" style="fill: rgb(255, 255, 255); transform-origin: 214.292px 273.723px;" id="el2xtu4l6166p" class="animable"></path><polygon points="196.91 270.23 226.73 279.63 220.1 323.84 191.16 311.86 196.91 270.23" style="fill: rgb(69, 90, 100); transform-origin: 208.945px 297.035px;" id="elj0xflz15obf" class="animable"></polygon><path d="M239.34,300.33c-2.88-.8-7.8-4.2-7.8-4.2s7.14-2.75,4.35-4.2-14.83,2.86-14.83,2.86-24.16-1.67-30.91-1.14-14.31,7.87-14.31,7.87-.87,6.86,9.95,8.31,35.27-3.73,35.27-3.73c15.82,6.23,22.57,4.91,25.65-.14S242.22,301.12,239.34,300.33Z" style="fill: rgb(148, 89, 89); transform-origin: 211.628px 300.955px;" id="elpe0ooew0ssg" class="animable"></path><path d="M261.51,281.23s-15.91-9.17-20.37,15.53L237,316.2l-28.86-8.77s-7.15-10.6-10.25-11.08,1,6,1,6-6-.18-8.77-1.24-8.77-5.72-9.28.17,2.05,10.45,18.48,14.8c0,0,44.74,30.31,50.67,17.8S261.27,285.53,261.51,281.23Z" style="fill: rgb(148, 89, 89); transform-origin: 221.146px 308.236px;" id="elafo6tpzi3nl" class="animable"></path><path d="M183.78,309.46a.27.27,0,0,1-.17-.06c-2.38-2.2-3.26-4.64-3-8.18a3.35,3.35,0,0,1,1.41-2.86c1.59-.88,4.17.46,6.23,1.53.73.38,1.42.74,2,.95,2.29.87,6.8,1.14,8.24,1.21-.71-1.18-2.53-4.41-1.79-5.55a1.15,1.15,0,0,1,1.25-.39c3.17.5,10.13,10.75,10.42,11.19a.23.23,0,0,1-.06.33.24.24,0,0,1-.34-.06c-.07-.11-7.13-10.52-10.09-11-.39-.07-.65,0-.77.18-.53.8,1,3.74,2,5.4l.25.39h-.46c-.24,0-6.05-.19-8.85-1.26a20.85,20.85,0,0,1-2-1c-2-1-4.41-2.29-5.78-1.54a2.93,2.93,0,0,0-1.16,2.48c-.29,3.38.55,5.7,2.81,7.78a.24.24,0,0,1,0,.34A.27.27,0,0,1,183.78,309.46Z" style="fill: rgb(112, 56, 56); transform-origin: 194.491px 302.759px;" id="el69uyb5lca8g" class="animable"></path><path d="M238.28,310.52a.25.25,0,0,1,0-.49c3.87-.09,6.56-1.46,8.23-4.19a2.94,2.94,0,0,0,.54-2.68c-.66-1.43-3.38-1.85-5.56-2.19-.42-.06-.82-.12-1.18-.19a.24.24,0,0,1,.08-.48l1.17.19c2.3.36,5.16.81,5.93,2.46a3.35,3.35,0,0,1-.57,3.14c-1.76,2.89-4.58,4.33-8.63,4.43Z" style="fill: rgb(112, 56, 56); transform-origin: 242.868px 305.408px;" id="elrnnwx0vezfl" class="animable"></path></g><defs>     <filter id="active" height="200%">         <feMorphology in="SourceAlpha" result="DILATED" operator="dilate" radius="2"></feMorphology>                <feFlood flood-color="#32DFEC" flood-opacity="1" result="PINK"></feFlood>        <feComposite in="PINK" in2="DILATED" operator="in" result="OUTLINE"></feComposite>        <feMerge>            <feMergeNode in="OUTLINE"></feMergeNode>            <feMergeNode in="SourceGraphic"></feMergeNode>        </feMerge>    </filter>    <filter id="hover" height="200%">        <feMorphology in="SourceAlpha" result="DILATED" operator="dilate" radius="2"></feMorphology>                <feFlood flood-color="#ff0000" flood-opacity="0.5" result="PINK"></feFlood>        <feComposite in="PINK" in2="DILATED" operator="in" result="OUTLINE"></feComposite>        <feMerge>            <feMergeNode in="OUTLINE"></feMergeNode>            <feMergeNode in="SourceGraphic"></feMergeNode>        </feMerge>            <feColorMatrix type="matrix" values="0   0   0   0   0                0   1   0   0   0                0   0   0   0   0                0   0   0   1   0 "></feColorMatrix>    </filter></defs></svg>